<svg fill="#000000" xmlns="http://www.w3.org/2000/svg" viewBox="0 0 80 80" width="80px" height="80px"><polyline fill="none" stroke="#000000" stroke-miterlimit="10" stroke-width="2" points="39.952,64.999 7,64.999 16.534,38.589"/><path fill="none" stroke="#000000" stroke-linecap="round" stroke-linejoin="round" stroke-miterlimit="10" stroke-width="2" d="M49,30.02c-4.81-2.04-10.318-1.633-15,2.98c-3.692,4.188-3.966,12.045-0.263,16.283c1.594,1.709,4.205,2.718,6.911,2.432 c4.412-0.467,6.871-5.628,4.069-9.069c-0.127-0.156-0.263-0.307-0.409-0.454"/><path d="M41,65.97c-0.13,0-0.26-0.02-0.38-0.08c-0.12-0.05-0.23-0.12-0.33-0.21c-0.09-0.1-0.16-0.2-0.21-0.33 C40.03,65.23,40,65.1,40,64.97c0-0.07,0.01-0.13,0.02-0.2c0.01-0.06,0.03-0.12,0.06-0.18c0.02-0.06,0.05-0.12,0.09-0.17 c0.03-0.06,0.08-0.11,0.12-0.16c0.1-0.09,0.21-0.16,0.33-0.21c0.18-0.08,0.38-0.1,0.58-0.06c0.06,0.01,0.12,0.03,0.18,0.06 c0.06,0.02,0.12,0.05,0.18,0.09c0.05,0.04,0.1,0.08,0.15,0.12c0.04,0.05,0.08,0.1,0.12,0.16c0.04,0.05,0.07,0.11,0.09,0.17 c0.03,0.06,0.05,0.12,0.06,0.18c0.01,0.07,0.02,0.13,0.02,0.2c0,0.13-0.03,0.26-0.08,0.38c-0.05,0.13-0.12,0.23-0.21,0.33 c-0.05,0.04-0.1,0.09-0.15,0.12c-0.06,0.04-0.12,0.07-0.18,0.09c-0.06,0.03-0.12,0.05-0.18,0.06C41.13,65.96,41.07,65.97,41,65.97 z"/><path d="M43.85,64.66c-0.12-0.54,0.22-1.07,0.75-1.2l0,0l0,0l0,0c0.54-0.12,1.08,0.22,1.2,0.75l0,0c0.13,0.54-0.21,1.08-0.75,1.2 l0,0c-0.07,0.02-0.15,0.03-0.22,0.03l0,0C44.37,65.44,43.96,65.12,43.85,64.66z M47.58,63.64c-0.21-0.51,0.02-1.1,0.53-1.32l0,0 c0.51-0.22,1.09,0.02,1.31,0.53l0,0c0.22,0.51-0.02,1.09-0.52,1.31l0,0c-0.13,0.06-0.27,0.08-0.4,0.08l0,0 C48.11,64.24,47.75,64.02,47.58,63.64z M51.07,61.96c-0.31-0.46-0.19-1.08,0.27-1.39l0,0c0.46-0.3,1.08-0.18,1.39,0.28l0,0 c0.31,0.46,0.18,1.08-0.27,1.39l0,0c-0.18,0.11-0.37,0.16-0.56,0.16l0,0C51.58,62.4,51.26,62.25,51.07,61.96z M54.18,59.67 c-0.38-0.4-0.38-1.03,0.01-1.42l0,0c0,0,0,0,0.01,0l0,0c0.39-0.38,1.02-0.38,1.41,0.02l0,0c0.39,0.39,0.38,1.02-0.01,1.41l0,0 c-0.2,0.19-0.45,0.29-0.7,0.29l0,0C54.64,59.97,54.38,59.87,54.18,59.67z M56.76,56.79c-0.47-0.29-0.61-0.91-0.32-1.38l0,0 c0.29-0.47,0.91-0.61,1.38-0.32l0,0c0.47,0.29,0.61,0.91,0.32,1.37l0,0c-0.19,0.31-0.52,0.48-0.85,0.48l0,0 C57.11,56.94,56.93,56.89,56.76,56.79z M58.63,53.4c-0.53-0.19-0.8-0.76-0.61-1.28l0,0c0.18-0.52,0.75-0.79,1.27-0.61l0,0 c0.52,0.19,0.8,0.76,0.61,1.28l0,0c-0.14,0.41-0.53,0.67-0.94,0.67l0,0C58.85,53.46,58.74,53.44,58.63,53.4z M59.73,49.69 c-0.55-0.07-0.94-0.57-0.86-1.12l0,0c0.07-0.55,0.57-0.93,1.12-0.86l0,0c0.55,0.07,0.93,0.57,0.86,1.12l0,0 c-0.07,0.5-0.5,0.87-0.99,0.87l0,0C59.81,49.7,59.77,49.7,59.73,49.69z M58.95,44.92c-0.04-0.55,0.37-1.03,0.92-1.08l0,0 c0.55-0.04,1.03,0.37,1.08,0.92l0,0c0.04,0.55-0.37,1.03-0.92,1.08l0,0c-0.03,0-0.05,0-0.08,0l0,0 C59.43,45.84,59,45.44,58.95,44.92z M58.26,41.35L58.26,41.35L58.26,41.35c-0.17-0.53,0.13-1.09,0.66-1.25l0,0 c0.52-0.17,1.08,0.12,1.25,0.65l0,0c0.16,0.53-0.13,1.09-0.66,1.25l0,0c-0.1,0.04-0.2,0.05-0.3,0.05l0,0 C58.79,42.05,58.39,41.77,58.26,41.35z M56.79,38.03c-0.28-0.47-0.13-1.09,0.35-1.37l0,0c0.47-0.28,1.09-0.12,1.37,0.35l0,0 c0.28,0.48,0.12,1.09-0.35,1.37l0,0c-0.16,0.1-0.34,0.14-0.51,0.14l0,0C57.31,38.52,56.97,38.35,56.79,38.03z M54.58,35.17 L54.58,35.17L54.58,35.17c-0.39-0.4-0.38-1.03,0.01-1.42l0,0c0.39-0.39,1.03-0.38,1.41,0.01l0,0c0.39,0.4,0.39,1.03-0.01,1.42l0,0 c-0.19,0.19-0.44,0.28-0.7,0.28l0,0C55.03,35.46,54.78,35.36,54.58,35.17z M51.8,32.74c-0.45-0.32-0.56-0.94-0.24-1.39l0,0 c0.33-0.45,0.95-0.56,1.4-0.23l0,0c0.45,0.32,0.55,0.94,0.23,1.39l0,0c-0.19,0.27-0.5,0.42-0.81,0.42l0,0 C52.18,32.93,51.97,32.87,51.8,32.74z"/><path d="M49,31.02c-0.26,0-0.52-0.11-0.71-0.29C48.11,30.54,48,30.28,48,30.02c0-0.26,0.11-0.52,0.29-0.71 c0.38-0.37,1.04-0.37,1.42,0c0.09,0.1,0.16,0.2,0.21,0.33c0.05,0.12,0.08,0.25,0.08,0.38c0,0.13-0.03,0.26-0.08,0.38 c-0.05,0.13-0.12,0.23-0.21,0.33C49.52,30.91,49.26,31.02,49,31.02z"/><path fill="none" stroke="#000000" stroke-linecap="round" stroke-linejoin="round" stroke-miterlimit="10" stroke-width="2" d="M17.82,33c-3.168,9.214-0.488,19.823,7.701,26.78C29.949,63.541,35.546,65.251,41,64.97"/><g><path d="M60.29,21c-0.13,0-0.26-0.03-0.38-0.08c-0.13-0.05-0.24-0.12-0.33-0.21c-0.04-0.05-0.08-0.1-0.12-0.15 c-0.04-0.06-0.07-0.12-0.09-0.18c-0.03-0.06-0.05-0.12-0.06-0.18c-0.01-0.07-0.02-0.14-0.02-0.2c0-0.26,0.11-0.52,0.29-0.71 c0.09-0.09,0.2-0.16,0.33-0.21c0.36-0.16,0.81-0.07,1.09,0.21c0.18,0.19,0.29,0.45,0.29,0.71c0,0.06-0.01,0.13-0.02,0.2 c-0.01,0.06-0.03,0.12-0.06,0.18c-0.02,0.06-0.05,0.12-0.09,0.18c-0.04,0.05-0.08,0.1-0.12,0.15C60.81,20.89,60.55,21,60.29,21z"/><path d="M18.93,30.27c-0.49-0.26-0.67-0.87-0.41-1.35l0,0c0.27-0.49,0.87-0.67,1.36-0.4l0,0c0.48,0.26,0.67,0.86,0.4,1.35l0,0 c-0.18,0.33-0.52,0.52-0.88,0.52l0,0C19.24,30.39,19.08,30.35,18.93,30.27z M20.93,26.9c-0.43-0.34-0.51-0.97-0.18-1.4l0,0 c0.34-0.44,0.97-0.52,1.4-0.19l0,0c0.44,0.34,0.52,0.97,0.19,1.41l0,0c-0.2,0.25-0.5,0.39-0.8,0.39l0,0 C21.33,27.11,21.12,27.04,20.93,26.9z M23.45,23.88c-0.38-0.39-0.38-1.02,0.02-1.41l0,0c0.39-0.39,1.03-0.38,1.41,0.02l0,0 c0.39,0.39,0.38,1.02-0.01,1.41l0,0c0,0,0,0-0.01,0l0,0c-0.19,0.19-0.44,0.29-0.69,0.29l0,0C23.91,24.19,23.65,24.08,23.45,23.88z M26.34,21.22c-0.34-0.44-0.25-1.06,0.19-1.4l0,0c0.44-0.33,1.06-0.25,1.4,0.19l0,0c0.33,0.44,0.25,1.07-0.19,1.4l0,0 c-0.18,0.14-0.39,0.21-0.61,0.21l0,0C26.83,21.62,26.53,21.48,26.34,21.22z M29.54,18.95c-0.27-0.49-0.11-1.1,0.38-1.37l0,0 c0.48-0.27,1.09-0.1,1.36,0.38l0,0c0.27,0.48,0.1,1.09-0.38,1.36l0,0c-0.15,0.09-0.32,0.13-0.49,0.13l0,0 C30.06,19.45,29.72,19.27,29.54,18.95z M56.4,19.05c-0.5-0.24-0.72-0.83-0.48-1.33l0,0c0.23-0.51,0.83-0.72,1.33-0.48l0,0 c0.5,0.23,0.71,0.83,0.48,1.33l0,0c-0.17,0.36-0.53,0.57-0.91,0.57l0,0C56.68,19.14,56.54,19.11,56.4,19.05z M33.02,17.13 c-0.2-0.51,0.06-1.09,0.57-1.29l0,0c0.52-0.2,1.1,0.06,1.29,0.57l0,0c0.2,0.51-0.05,1.09-0.57,1.29l0,0c0,0,0,0,0,0.01l0,0 c-0.11,0.04-0.24,0.06-0.36,0.06l0,0C33.55,17.77,33.17,17.53,33.02,17.13z M52.86,17.61L52.86,17.61L52.86,17.61 c-0.52-0.18-0.8-0.75-0.62-1.27l0,0c0.18-0.52,0.75-0.8,1.27-0.62l0,0c0.52,0.18,0.8,0.75,0.62,1.27l0,0 c-0.14,0.41-0.53,0.67-0.94,0.67l0,0C53.08,17.66,52.97,17.65,52.86,17.61z M36.73,15.85c-0.12-0.54,0.22-1.07,0.76-1.19l0,0 c0.54-0.12,1.07,0.22,1.19,0.75l0,0c0.12,0.54-0.22,1.08-0.75,1.2l0,0c-0.08,0.02-0.15,0.02-0.22,0.02l0,0 C37.25,16.63,36.83,16.32,36.73,15.85z M49.19,16.6c0,0,0,0,0.01,0l0,0c-0.54-0.11-0.89-0.64-0.78-1.18l0,0 c0.12-0.54,0.64-0.89,1.19-0.78l0,0c0.54,0.12,0.88,0.65,0.77,1.19l0,0c-0.1,0.47-0.52,0.79-0.98,0.79l0,0 C49.33,16.62,49.26,16.62,49.19,16.6z M45.44,16.07c-0.55-0.04-0.96-0.52-0.92-1.07l0,0c0.04-0.55,0.52-0.96,1.07-0.92l0,0 c0.55,0.04,0.96,0.52,0.92,1.07l0,0c-0.04,0.52-0.48,0.92-1,0.92l0,0C45.49,16.07,45.47,16.07,45.44,16.07z M40.59,15.14 c-0.04-0.56,0.38-1.03,0.93-1.07l0,0c0.55-0.04,1.03,0.37,1.07,0.93l0,0c0.04,0.55-0.38,1.02-0.93,1.06l0,0 c-0.02,0-0.05,0.01-0.07,0.01l0,0C41.07,16.07,40.63,15.66,40.59,15.14z"/><path d="M17.82,34c-0.26,0-0.52-0.11-0.71-0.29c-0.09-0.1-0.16-0.2-0.21-0.33c-0.05-0.12-0.08-0.25-0.08-0.38 c0-0.13,0.03-0.26,0.08-0.38c0.05-0.13,0.12-0.23,0.21-0.33c0.38-0.37,1.04-0.37,1.42,0c0.18,0.19,0.29,0.45,0.29,0.71 c0,0.26-0.11,0.52-0.29,0.71C18.34,33.89,18.08,34,17.82,34z"/></g><path fill="none" stroke="#000000" stroke-linecap="round" stroke-linejoin="round" stroke-miterlimit="10" stroke-width="2" d="M73,17.495l-7.911,5.868c-1.564-1.257-3.168-2.38-4.8-3.363"/></svg>